# xmcd
#
# Track frame offsets:
#	150
#	18986
#	35828
#	55658
#	69257
#	88174
#	104028
#	122018
#	138107
#	155236
#	171966
#	190755
#	209104
#	227992
#	244215
#	258716
#	277188
#
# Disc length: 3931 seconds
#
# Revision: 0
# Processed by: cddbd v1.5.2PL0 Copyright (c) Steve Scherf et al.
# Submitted via: audiograbber 1.83.01
#
DISCID=090f5911
DTITLE=Various Artist - PURE Dance Party - CD1 (17 Track Edition)
DYEAR=1900
DGENRE=
TTITLE0=David Bowie - Let's Dance
TTITLE1=The Human League - (Keep Feeling) Fascination
TTITLE2=Duran Duran - The Reflex
TTITLE3=Yazoo - Don't Go
TTITLE4=Heaven 17 - Temptation
TTITLE5=Blondie - Call Me
TTITLE6=Babylon Zoo - Spaceman
TTITLE7=Mel and Kim - Showing Out (Get Fresh at the Weekend)
TTITLE8=Sly Fox - Let's Go All The Way
TTITLE9=Paula Abdul - Straight Up
TTITLE10=Culture Club - Moce Away
TTITLE11=Hot Chocolate - You Sexy Thing
TTITLE12=Gonzales - Haven't Stopped Dancing Yet
TTITLE13=Boogie Oogie Oogie - A Taste of Honey
TTITLE14=Maxine Nightingale - Right Back Where We Started From
TTITLE15=B.E.F. Featuring Lalah Hathaway - Family Affair
TTITLE16=Sydney Youngblood - Ain't No Sunshine
EXTD=This is an erratum for what is already in the database showing all 17 trac
EXTD=ks of the album.
EXTT0=
EXTT1=
EXTT2=
EXTT3=
EXTT4=
EXTT5=
EXTT6=
EXTT7=
EXTT8=
EXTT9=
EXTT10=
EXTT11=
EXTT12=
EXTT13=
EXTT14=
EXTT15=
EXTT16=
PLAYORDER=
